# xmcd CD database file
#
# Track frame offsets:
#	150
#	3541
#	20233
#	36948
#	55383
#	77043
#	98982
#	112663
#	129043
#	145451
#	160950
#	178460
#
# Disc length: 2630 seconds
#
# Revision: 0
# Processed by: cddbd v1.5.1PL0 Copyright (c) Steve Scherf et al.
# Submitted via: CDex 1.51
#
DISCID=a10a440c
DTITLE=ＳＨＡＫＥ　ＤＯＷＮ - ＢＥＡＴＮＯＩＤ　ＲＥＮＤＥＺＶＯＵＳ
DYEAR=2004
DGENRE=Rock
TTITLE0=ＳＨＡＫＥ　ＤＯＷＮ - ＤｅＭＯＮＳｔＲ＠ＴｉＯＮ
TTITLE1=ＳＨＡＫＥ　ＤＯＷＮ - ＤＯ　ＩＴ　ＮＯＷ
TTITLE2=ＳＨＡＫＥ　ＤＯＷＮ - ＢＯＯＧＩＥ　ＢＯＹ　ＢＬＵＥＳ
TTITLE3=ＳＨＡＫＥ　ＤＯＷＮ - ブルージーナイトをこえて
TTITLE4=ＳＨＡＫＥ　ＤＯＷＮ - ＪＥＡＬＯＵＳＹ
TTITLE5=ＳＨＡＫＥ　ＤＯＷＮ - ＷＩＴＨ　ＹＯＵＲ　ＬＯＶＥ
TTITLE6=ＳＨＡＫＥ　ＤＯＷＮ - ＮＯ　ＲＥＡＣＴＩＯＮ
TTITLE7=ＳＨＡＫＥ　ＤＯＷＮ - ＢＡＢＹ　ＳＷＥＥＴ
TTITLE8=ＳＨＡＫＥ　ＤＯＷＮ - ＥＶＥＲＹＢＯＤＹ　ＤＯ　ＴＨＥ　ＳＴＥＰ
TTITLE9=ＳＨＡＫＥ　ＤＯＷＮ - ＡＬＬ　ＯＲ　ＮＯＴＨＩＮＧ
TTITLE10=ＳＨＡＫＥ　ＤＯＷＮ - 今夜一度だけ
TTITLE11=ＳＨＡＫＥ　ＤＯＷＮ - ＡＦＴＥＲ　ＴＨＥ　ＴＷＩＬＩＧＨＴ
EXTD=YEAR: 2004
EXTT0=
EXTT1=
EXTT2=
EXTT3=
EXTT4=
EXTT5=
EXTT6=
EXTT7=
EXTT8=
EXTT9=
EXTT10=
EXTT11=
PLAYORDER=
